<?xml version="1.0" encoding="UTF-8"?>
<svg width="167px" height="70px" viewBox="0 0 167 70" version="1.1" xmlns="http://www.w3.org/2000/svg" xmlns:xlink="http://www.w3.org/1999/xlink">
    <!-- Generator: sketchtool 55.2 (78181) - https://sketchapp.com -->
    <title>F53B923C-7BA0-4BBB-9CCF-4080001493D8</title>
    <desc>Created with sketchtool.</desc>
    <defs>
        <polygon id="path-1" points="0 0.0998631179 69.6662433 0.0998631179 69.6662433 69.7338403 0 69.7338403"></polygon>
    </defs>
    <g id="✏️-Designs" stroke="none" stroke-width="1" fill="none" fill-rule="evenodd">
        <g id="Home-Desktop" transform="translate(-50.000000, -16.000000)">
            <g id="Nav-Bar">
                <g id="Group-16">
                    <g id="-g-Logo-Desktop-Nav" transform="translate(50.000000, 16.000000)">
                        <g id="Group-10" transform="translate(77.500000, 15.212521)" fill="#4CA9D4">
                            <path d="M0,9.7874794 L3.09484649,0.620812738 L4.40515351,0.620812738 L7.5,9.7874794 L6.25900689,9.7874794 L5.39473684,6.99257247 L2.06375313,6.99257247 L1.18499373,9.7874794 L0,9.7874794 Z M2.78822055,4.65929624 L2.35628133,6.05635716 L5.10220865,6.05635716 L4.66987782,4.65929624 C4.50266291,4.14702748 4.3452381,3.63711398 4.19603697,3.1291632 C4.04722744,2.62121242 3.89841792,2.10187789 3.75,1.57076706 L3.69439223,1.57076706 C3.5549812,2.10187789 3.41087093,2.62121242 3.2620614,3.1291632 C3.11325188,3.63711398 2.95543546,4.14702748 2.78822055,4.65929624 L2.78822055,4.65929624 Z" id="Fill-1"></path>
                            <polygon id="Fill-3" points="9.16666667 9.7874794 9.16666667 0.620812738 15 0.620812738 15 1.59863762 10.4476937 1.59863762 10.4476937 4.70090581 14.3055143 4.70090581 14.3055143 5.67912323 10.4476937 5.67912323 10.4476937 9.7874794"></polygon>
                            <path d="M20.6295837,9.7874794 C20.0492685,9.7874794 19.5159652,9.68410022 19.0296739,9.47734184 C18.5430065,9.27096214 18.1259167,8.97218493 17.7776524,8.5810102 C17.4297642,8.19021415 17.1574711,7.70929265 16.9611493,7.13862439 C16.7648276,6.56795613 16.6666667,5.92344558 16.6666667,5.20433541 C16.6666667,4.49469219 16.766708,3.85624051 16.9679191,3.29011638 C17.168754,2.72399226 17.4474407,2.24307076 17.8043552,1.84773057 C18.1616458,1.45239038 18.5873858,1.14906903 19.0830795,0.937766511 C19.5783971,0.726842674 20.1162135,0.620812738 20.6965286,0.620812738 C20.9996615,0.620812738 21.2787243,0.652621719 21.5325887,0.715103645 C21.7875813,0.778342929 22.0192561,0.861273486 22.2294934,0.964652674 C22.4389785,1.06841054 22.6266501,1.18504347 22.791756,1.31493014 C22.9564858,1.44557417 23.1016586,1.57811159 23.2268983,1.71292108 L22.6112302,2.44074086 C22.3878296,2.20709632 22.1286998,2.00942622 21.8345933,1.84773057 C21.5397345,1.68603492 21.1692805,1.60537643 20.7232314,1.60537643 C20.2768062,1.60537643 19.8751363,1.68830699 19.5182218,1.85454678 C19.1613073,2.02078657 18.8577983,2.25897525 18.608071,2.56873414 C18.3579676,2.8788717 18.1635263,3.25414194 18.0254993,3.69454485 C17.8870962,4.13494777 17.8175185,4.62912301 17.8175185,5.17707057 C17.8175185,5.73448509 17.8822069,6.23547654 18.0119598,6.68042359 C18.1413366,7.12537065 18.3290082,7.50480635 18.5742224,7.81948805 C18.8198127,8.13416976 19.1233217,8.37690257 19.4847493,8.54730783 C19.846177,8.71809176 20.2632668,8.80329439 20.7363947,8.80329439 C21.04893,8.80329439 21.3456693,8.75633827 21.6266125,8.66204737 C21.9075558,8.56737778 22.1377261,8.4393845 22.3159953,8.27768885 L22.3159953,5.97267377 L20.4554515,5.97267377 L20.4554515,5.04263976 L23.3333333,5.04263976 L23.3333333,8.76315448 C23.048253,9.05965963 22.6732859,9.30466452 22.2091842,9.49779047 C21.7450826,9.69091643 21.2181729,9.7874794 20.6295837,9.7874794" id="Fill-5"></path>
                            <polygon id="Fill-7" points="26.6666667 9.7874794 26.6666667 0.620812738 27.8391461 0.620812738 27.8391461 4.46341723 32.1469666 4.46341723 32.1469666 0.620812738 33.3333333 0.620812738 33.3333333 9.7874794 32.1469666 9.7874794 32.1469666 5.46950521 27.8391461 5.46950521 27.8391461 9.7874794"></polygon>
                            <path d="M35.8333333,9.7874794 L38.9279498,0.620812738 L40.2383252,0.620812738 L43.3333333,9.7874794 L42.0922754,9.7874794 L41.2279602,6.99257247 L37.8968026,6.99257247 L37.0179973,9.7874794 L35.8333333,9.7874794 Z M38.6213079,4.65929624 L38.1893461,6.05635716 L40.9354168,6.05635716 L40.503455,4.65929624 C40.3358397,4.14702748 40.1784067,3.63711398 40.0295894,3.1291632 C39.8807721,2.62121242 39.7315632,2.10187789 39.5831375,1.57076706 L39.5275268,1.57076706 C39.3881085,2.10187789 39.2443824,2.62121242 39.0951734,3.1291632 C38.9463562,3.63711398 38.7889231,4.14702748 38.6213079,4.65929624 L38.6213079,4.65929624 Z" id="Fill-9"></path>
                            <path d="M45,9.7874794 L45,0.620812738 L46.2283446,0.620812738 L49.6110042,6.37784997 L50.6243985,8.2785437 L50.6817453,8.2785437 C50.6532724,7.81259503 50.6223933,7.33055209 50.5887071,6.83202234 C50.5558229,6.33388514 50.5393808,5.84242117 50.5393808,5.35763043 L50.5393808,0.620812738 L51.6666667,0.620812738 L51.6666667,9.7874794 L50.4391242,9.7874794 L47.0412255,4.01631063 L46.0278312,2.12974845 L45.9704844,2.12974845 C46.008582,2.59608966 46.0442733,3.06831902 46.0779596,3.54839924 C46.1112448,4.02808692 46.1280879,4.51012986 46.1280879,4.99452805 L46.1280879,9.7874794 L45,9.7874794 Z" id="Fill-11"></path>
                            <polygon id="Fill-13" points="55 9.7874794 55 5.20414607 55 0.620812738 55.8333333 0.620812738 55.8333333 5.18216366 55.8333333 9.7874794"></polygon>
                            <path d="M61.2952168,9.7874794 C60.7026954,9.7874794 60.1535822,9.67084647 59.6467919,9.43682326 C59.1403634,9.2035574 58.7023027,8.88433155 58.3333333,8.47990308 L58.9775828,7.69831098 C59.2778226,8.03079057 59.6315991,8.29813748 60.0396358,8.50035171 C60.4473108,8.70218727 60.8701786,8.80329439 61.3078775,8.80329439 C61.8660341,8.80329439 62.2993923,8.67075697 62.6090372,8.40568213 C62.9175968,8.14060729 63.0720575,7.79222321 63.0720575,7.36090858 C63.0720575,7.13635232 63.0358841,6.94549843 62.9628137,6.78796824 C62.8897433,6.63119541 62.7909897,6.49638592 62.666553,6.38391845 C62.5421163,6.27145098 62.393805,6.17034387 62.2223428,6.0805971 C62.0508806,5.99085033 61.8660341,5.89618074 61.668527,5.7973457 L60.4585245,5.24447531 C60.2606557,5.15510723 60.0591695,5.0471839 59.8533424,4.92108401 C59.6467919,4.7953628 59.462669,4.64275543 59.2991649,4.46288321 C59.1360226,4.283011 59.0029042,4.06981509 58.9005333,3.82253813 C58.7974389,3.57526118 58.7453491,3.29011638 58.7453491,2.9663464 C58.7453491,2.63424549 58.81227,2.32410793 58.9453884,2.03631239 C59.078145,1.74889552 59.2629914,1.4993465 59.4988424,1.28842266 C59.7350552,1.07712014 60.0139526,0.913152419 60.3358965,0.796140811 C60.6578403,0.679507881 61.0123403,0.620812738 61.3979495,0.620812738 C61.9051015,0.620812738 62.3728244,0.722298534 62.8018417,0.924512769 C63.2312208,1.126727 63.5954876,1.38952978 63.8960891,1.71292108 L63.3173137,2.44074086 C63.0593968,2.18021016 62.7739882,1.97572385 62.4607259,1.82728194 C62.147102,1.67884003 61.7933255,1.60537643 61.3979495,1.60537643 C60.9258857,1.60537643 60.5464261,1.71973729 60.258847,1.94883769 C59.9712679,2.17793809 59.8269358,2.49489186 59.8269358,2.89894165 C59.8269358,3.11478831 59.8681735,3.29693259 59.9495639,3.44499583 C60.0313159,3.59343774 60.1405598,3.72370309 60.2776572,3.83617055 C60.4151164,3.94863802 60.5652363,4.04709439 60.7287403,4.1326757 C60.8918827,4.21787832 61.0593658,4.29664342 61.2308281,4.36859231 L62.4285316,4.90783027 C62.6690851,5.01537492 62.8966162,5.13920274 63.1111249,5.27855637 C63.3252718,5.41791 63.5101182,5.57960565 63.6649407,5.76364332 C63.8194014,5.94805968 63.941306,6.16352765 64.0313779,6.41080461 C64.1218116,6.65808157 64.1666667,6.94322636 64.1666667,7.26661767 C64.1666667,7.61727382 64.1004692,7.94558794 63.9673509,8.25080269 C63.8342325,8.55639611 63.6428749,8.82374302 63.3943631,9.05284342 C63.1447662,9.28194382 62.8445264,9.46181603 62.4932821,9.59208138 C62.1409525,9.72196805 61.7412357,9.7874794 61.2952168,9.7874794" id="Fill-15"></path>
                            <polygon id="Fill-17" points="67.7498488 9.7874794 67.7498488 1.59863762 65 1.59863762 65 0.620812738 71.6666667 0.620812738 71.6666667 1.59863762 68.9164277 1.59863762 68.9164277 9.7874794"></polygon>
                            <path d="M72.5,9.7874794 L75.5948465,0.620812738 L76.9051535,0.620812738 L80,9.7874794 L78.7590069,9.7874794 L77.8947368,6.99257247 L74.5637531,6.99257247 L73.6849937,9.7874794 L72.5,9.7874794 Z M75.2882206,4.65929624 L74.8562813,6.05635716 L77.6022086,6.05635716 L77.1702694,4.65929624 C77.0026629,4.14702748 76.8452381,3.63711398 76.6964286,3.1291632 C76.5472274,2.62121242 76.3984179,2.10187789 76.25,1.57076706 L76.1943922,1.57076706 C76.0549812,2.10187789 75.9108709,2.62121242 75.7620614,3.1291632 C75.6132519,3.63711398 75.4558271,4.14702748 75.2882206,4.65929624 L75.2882206,4.65929624 Z" id="Fill-19"></path>
                            <path d="M82.5,9.7874794 L82.5,0.620812738 L83.7282707,0.620812738 L87.1107268,6.37784997 L88.1240602,8.2785437 L88.1814035,8.2785437 C88.1533333,7.81259503 88.1224561,7.33055209 88.0891729,6.83202234 C88.0554887,6.33388514 88.0390476,5.84242117 88.0390476,5.35763043 L88.0390476,0.620812738 L89.1666667,0.620812738 L89.1666667,9.7874794 L87.938797,9.7874794 L84.5411028,4.01631063 L83.5277694,2.12974845 L83.4704261,2.12974845 C83.5089223,2.59608966 83.5442105,3.06831902 83.5778947,3.54839924 C83.6111779,4.02808692 83.6280201,4.51012986 83.6280201,4.99452805 L83.6280201,9.7874794 L82.5,9.7874794 Z" id="Fill-21"></path>
                            <path d="M0,23.9541461 L3.09445489,14.7874794 L4.40515351,14.7874794 L7.5,23.9541461 L6.25900689,23.9541461 L5.39473684,21.1594785 L2.06375313,21.1594785 L1.18499373,23.9541461 L0,23.9541461 Z M2.78822055,18.8264021 L2.35628133,20.2229508 L5.10220865,20.2229508 L4.66987782,18.8264021 C4.50266291,18.3137847 4.3452381,17.8043074 4.19603697,17.2964001 C4.04722744,16.7884928 3.89841792,16.2688102 3.75,15.7381374 L3.69439223,15.7381374 C3.5549812,16.2688102 3.41087093,16.7884928 3.2620614,17.2964001 C3.11325188,17.8043074 2.95543546,18.3137847 2.78822055,18.8264021 L2.78822055,18.8264021 Z" id="Fill-23"></path>
                            <path d="M10,23.9541461 L10,14.7874794 L11.2283446,14.7874794 L14.6110042,20.5445166 L15.6243985,22.4452104 L15.6817453,22.4452104 C15.6532724,21.9792617 15.6227944,21.4972188 15.5891081,20.998689 C15.5558229,20.5005518 15.5393808,20.0090878 15.5393808,19.5242971 L15.5393808,14.7874794 L16.6666667,14.7874794 L16.6666667,23.9541461 L15.4391242,23.9541461 L12.0412255,18.1829773 L11.0278312,16.2964151 L10.9704844,16.2964151 C11.008582,16.7627563 11.0442733,17.2349857 11.0779596,17.7150659 C11.1112448,18.1947536 11.1280879,18.6767965 11.1280879,19.1611947 L11.1280879,23.9541461 L10,23.9541461 Z" id="Fill-25"></path>
                            <path d="M18.3333333,23.9541461 L21.4277882,14.7874794 L22.7384868,14.7874794 L25.8333333,23.9541461 L24.5923402,23.9541461 L23.7280702,21.1592391 L20.3970865,21.1592391 L19.5183271,23.9541461 L18.3333333,23.9541461 Z M21.1215539,18.8259629 L20.6896147,20.2230238 L23.435542,20.2230238 L23.0032112,18.8259629 C22.8359962,18.3136941 22.6781798,17.8037806 22.5293703,17.2958299 C22.3805608,16.7878791 22.2317513,16.2685446 22.0833333,15.7378263 L22.0277256,15.7378263 C21.8883145,16.2685446 21.7442043,16.7878791 21.5953947,17.2958299 C21.4465852,17.8037806 21.2887688,18.3136941 21.1215539,18.8259629 L21.1215539,18.8259629 Z" id="Fill-27"></path>
                            <polygon id="Fill-29" points="28.3333333 23.9541461 28.3333333 14.7874794 29.455116 14.7874794 29.455116 22.9621896 33.3333333 22.9621896 33.3333333 23.9541461"></polygon>
                            <path d="M36.0809434,23.9541461 L36.0809434,20.4047713 L33.3333333,14.7874794 L34.5741263,14.7874794 L35.7604607,17.3723758 C35.9089484,17.7080001 36.0531265,18.038914 36.1922113,18.3643322 C36.3320796,18.6909281 36.4809591,19.0261599 36.6388497,19.3708127 L36.6944836,19.3708127 C36.852766,19.0261599 37.0102648,18.6909281 37.1685472,18.3643322 C37.3268297,18.038914 37.4757091,17.7080001 37.6147939,17.3723758 L38.7862404,14.7874794 L40,14.7874794 L37.2519981,20.4047713 L37.2519981,23.9541461 L36.0809434,23.9541461 Z" id="Fill-31"></path>
                            <path d="M43.7954005,23.9541461 C43.2024806,23.9541461 42.6533333,23.8371345 42.1465116,23.6034899 C41.6400517,23.3702241 41.2026873,23.0509982 40.8333333,22.6469484 L41.477261,21.8649776 C41.7775194,22.1974572 42.1313178,22.4648041 42.5393798,22.6673971 C42.9470801,22.8692326 43.3699742,22.9699611 43.8077003,22.9699611 C44.3658915,22.9699611 44.7992765,22.8378023 45.1089406,22.5727275 C45.4175194,22.307274 45.5719897,21.9588899 45.5719897,21.5279539 C45.5719897,21.303019 45.535814,21.1121651 45.462739,20.9546349 C45.3896641,20.7978621 45.2909044,20.6634313 45.1664599,20.5509638 C45.0420155,20.4384963 44.8936951,20.3370105 44.722584,20.2476424 C44.5507494,20.1578957 44.3658915,20.0632261 44.1683721,19.964391 L42.9582946,19.411142 C42.7604134,19.3221526 42.5592765,19.2138506 42.3530749,19.0877507 C42.1465116,18.9620295 41.9623773,18.8098008 41.798863,18.6295499 C41.6357106,18.4496777 41.502584,18.2364818 41.4002067,17.9895835 C41.2971059,17.7419278 41.2450129,17.456783 41.2450129,17.1330131 C41.2450129,16.8009122 41.311938,16.4911533 41.4450646,16.2029791 C41.5778295,15.9155622 41.7626873,15.6660132 41.998553,15.455468 C42.2347804,15.2441655 42.5140568,15.0798191 42.8356589,14.9628075 C43.1576227,14.8461745 43.5121447,14.7874794 43.8977778,14.7874794 C44.4049612,14.7874794 44.8727132,14.8889652 45.3017571,15.0908008 C45.7311628,15.2933937 46.0954522,15.5561964 46.3960724,15.8795877 L45.817261,16.6077862 C45.5596899,16.3472555 45.2739018,16.1427692 44.9606202,15.9939486 C44.6469767,15.8458854 44.2931783,15.7720431 43.8977778,15.7720431 C43.4260465,15.7720431 43.0462016,15.886404 42.7586047,16.1155044 C42.4710078,16.3446048 42.3266667,16.6615585 42.3266667,17.065987 C42.3266667,17.281455 42.367907,17.4635993 42.4493023,17.6116625 C42.5310594,17.7604831 42.6403101,17.8903698 42.7777778,18.0032159 C42.9148837,18.1156834 43.0650129,18.2137611 43.2285271,18.2993424 C43.3916796,18.384545 43.5591731,18.4633101 43.730646,18.535259 L44.9284238,19.0744969 C45.1689922,19.1820416 45.3965375,19.3062481 45.6110594,19.445223 C45.8252196,19.5849553 46.0100775,19.746651 46.1649096,19.93031 C46.3193798,20.1147263 46.441292,20.330573 46.5313695,20.5770926 C46.6218088,20.8247482 46.6666667,21.109893 46.6666667,21.433663 C46.6666667,21.7843192 46.6004651,22.1126333 46.4673385,22.4174694 C46.3342119,22.7230628 46.1428424,22.9904097 45.8943152,23.2198888 C45.6447028,23.4486105 45.3444444,23.6288614 44.9931783,23.758748 C44.6408269,23.8886347 44.241447,23.9541461 43.7954005,23.9541461" id="Fill-33"></path>
                            <polygon id="Fill-35" points="51.0831821 23.9541461 51.0831821 15.7653043 48.3333333 15.7653043 48.3333333 14.7874794 55 14.7874794 55 15.7653043 52.249761 15.7653043 52.249761 23.9541461"></polygon>
                            <path d="M58.7954005,23.9541461 C58.2024806,23.9541461 57.6533333,23.8371345 57.1465116,23.6034899 C56.6400517,23.3702241 56.2023256,23.0509982 55.8333333,22.6469484 L56.477261,21.8649776 C56.7775194,22.1974572 57.1313178,22.4648041 57.5393798,22.6673971 C57.9470801,22.8692326 58.3699742,22.9699611 58.8077003,22.9699611 C59.3658915,22.9699611 59.7992765,22.8378023 60.1089406,22.5727275 C60.4175194,22.307274 60.5719897,21.9588899 60.5719897,21.5279539 C60.5719897,21.303019 60.535814,21.1121651 60.462739,20.9546349 C60.3896641,20.7978621 60.2909044,20.6634313 60.1668217,20.5509638 C60.0420155,20.4384963 59.8936951,20.3370105 59.722584,20.2476424 C59.5507494,20.1578957 59.3658915,20.0632261 59.1683721,19.964391 L57.9582946,19.411142 C57.7604134,19.3221526 57.5589147,19.2138506 57.3530749,19.0877507 C57.1465116,18.9620295 56.9623773,18.8098008 56.798863,18.6295499 C56.6357106,18.4496777 56.502584,18.2364818 56.4002067,17.9895835 C56.2971059,17.7419278 56.2450129,17.456783 56.2450129,17.1330131 C56.2450129,16.8009122 56.311938,16.4911533 56.4450646,16.2029791 C56.5778295,15.9155622 56.7626873,15.6660132 56.998553,15.455468 C57.2347804,15.2441655 57.5136951,15.0798191 57.8356589,14.9628075 C58.1576227,14.8461745 58.5121447,14.7874794 58.8977778,14.7874794 C59.4049612,14.7874794 59.8727132,14.8889652 60.3017571,15.0908008 C60.7311628,15.2933937 61.0954522,15.5561964 61.3964341,15.8795877 L60.817261,16.6077862 C60.5596899,16.3472555 60.2739018,16.1427692 59.9606202,15.9939486 C59.6469767,15.8458854 59.2931783,15.7720431 58.8977778,15.7720431 C58.4260465,15.7720431 58.0462016,15.886404 57.7586047,16.1155044 C57.4710078,16.3446048 57.3266667,16.6615585 57.3266667,17.065987 C57.3266667,17.281455 57.367907,17.4635993 57.4493023,17.6116625 C57.5310594,17.7604831 57.6403101,17.8903698 57.7777778,18.0032159 C57.9148837,18.1156834 58.0650129,18.2137611 58.2285271,18.2993424 C58.3916796,18.384545 58.5591731,18.4633101 58.730646,18.535259 L59.9284238,19.0744969 C60.1689922,19.1820416 60.3965375,19.3062481 60.6110594,19.445223 C60.8252196,19.5849553 61.0104393,19.746651 61.1649096,19.93031 C61.3193798,20.1147263 61.441292,20.330573 61.5313695,20.5770926 C61.6218088,20.8247482 61.6666667,21.109893 61.6666667,21.433663 C61.6666667,21.7843192 61.6004651,22.1126333 61.4673385,22.4174694 C61.3342119,22.7230628 61.1428424,22.9904097 60.8943152,23.2198888 C60.6447028,23.4486105 60.3444444,23.6288614 59.9931783,23.758748 C59.6408269,23.8886347 59.241447,23.9541461 58.7954005,23.9541461" id="Fill-37"></path>
                            <path d="M0,38.9541461 L0,29.7874794 L1.22827068,29.7874794 L4.61072682,35.5445166 L5.62406015,37.4452104 L5.68140351,37.4452104 C5.65333333,36.9792617 5.62245614,36.4972188 5.58917293,35.998689 C5.55548872,35.5005518 5.53904762,35.0090878 5.53904762,34.5242971 L5.53904762,29.7874794 L6.66666667,29.7874794 L6.66666667,38.9541461 L5.43879699,38.9541461 L2.04150376,33.1829773 L1.02776942,31.2964151 L0.970827068,31.2964151 C1.00892231,31.7627563 1.04421053,32.2349857 1.07789474,32.7150659 C1.11117794,33.1947536 1.12802005,33.6767965 1.12802005,34.1611947 L1.12802005,38.9541461 L0,38.9541461 Z" id="Fill-39"></path>
                            <polygon id="Fill-41" points="9.16666667 38.9541461 9.16666667 29.7874794 14.8496476 29.7874794 14.8496476 30.7660475 10.4146756 30.7660475 10.4146756 33.6448353 14.1574356 33.6448353 14.1574356 34.6363568 10.4146756 34.6363568 10.4146756 37.9626246 15 37.9626246 15 38.9541461"></polygon>
                            <polygon id="Fill-43" points="19.4165155 38.9541461 19.4165155 30.7660475 16.6666667 30.7660475 16.6666667 29.7874794 23.3333333 29.7874794 23.3333333 30.7660475 20.5830944 30.7660475 20.5830944 38.9541461"></polygon>
                            <path d="M27.8709406,38.9541461 L25.8333333,29.7874794 L27.093866,29.7874794 L28.1052572,34.7760961 C28.1933833,35.2797074 28.2860392,35.7731129 28.3840486,36.2578829 C28.4812344,36.7418678 28.5743022,37.2356659 28.6624283,37.7384921 L28.7213163,37.7384921 C28.8283853,37.2356659 28.9412197,36.7395127 29.0585839,36.2504249 C29.1755363,35.7613372 29.287547,35.2698942 29.3954397,34.7760961 L30.7296854,29.7874794 L31.843204,29.7874794 L33.1774496,34.7760961 C33.2948138,35.2608661 33.412178,35.7495614 33.5295422,36.243752 C33.6464946,36.7375501 33.7638588,37.2356659 33.881223,37.7384921 L33.9396992,37.7384921 C34.0278253,37.2356659 34.1155396,36.7395127 34.2036657,36.2504249 C34.29138,35.7613372 34.3844477,35.2698942 34.4824571,34.7760961 L35.4938483,29.7874794 L36.6666667,29.7874794 L34.6727107,38.9541461 L33.2070995,38.9541461 L31.7554897,33.4348338 C31.6677754,33.0807751 31.5870617,32.7337818 31.5137606,32.393854 C31.4404594,32.0543188 31.3646875,31.706933 31.2864447,31.3532668 L31.2279685,31.3532668 C31.1493139,31.706933 31.0690121,32.0543188 30.9854158,32.393854 C30.9026431,32.7337818 30.8223413,33.0807751 30.7440985,33.4348338 L29.3221386,38.9541461 L27.8709406,38.9541461 Z" id="Fill-45"></path>
                            <path d="M41.2432399,38.9541461 C40.6900351,38.9541461 40.1849024,38.8462227 39.7259639,38.6307548 C39.2662744,38.4149081 38.8723085,38.1070426 38.5429394,37.7071583 C38.2128192,37.3068953 37.956685,36.822187 37.7737857,36.2515187 C37.5905108,35.6804718 37.5,35.0405054 37.5,34.3304835 C37.5,33.6208403 37.5905108,32.9846607 37.7737857,32.4230807 C37.956685,31.8615007 38.2128192,31.3851233 38.5429394,30.9939486 C38.8723085,30.6031526 39.2662744,30.3043753 39.7259639,30.0972383 C40.1849024,29.8904799 40.6900351,29.7874794 41.2432399,29.7874794 C41.7956935,29.7874794 42.3012018,29.8935093 42.7608913,30.1044332 C43.2194542,30.3157357 43.6160491,30.6164063 43.9503005,31.007581 C44.2849274,31.3987558 44.5429394,31.8751331 44.7254632,32.4363344 C44.9083625,32.9979144 45,33.6291712 45,34.3304835 C45,35.0405054 44.9083625,35.6804718 44.7254632,36.2515187 C44.5429394,36.822187 44.2849274,37.3068953 43.9503005,37.7071583 C43.6160491,38.1070426 43.2194542,38.4149081 42.7608913,38.6307548 C42.3012018,38.8462227 41.7956935,38.9541461 41.2432399,38.9541461 M41.2432399,37.9695824 C41.635328,37.9695824 41.9894842,37.8847584 42.3060841,37.7139745 C42.622684,37.5431906 42.8942163,37.2985644 43.1218077,36.9793385 C43.348648,36.6601127 43.5247872,36.2784049 43.6498498,35.8334578 C43.7745368,35.3888895 43.8365048,34.887898 43.8365048,34.3304835 C43.8365048,33.7825359 43.7745368,33.287982 43.6498498,32.8475791 C43.5247872,32.4075549 43.348648,32.0345567 43.1218077,31.7289633 C42.8942163,31.4233698 42.622684,31.1874532 42.3060841,31.0212134 C41.9894842,30.854595 41.635328,30.7716644 41.2432399,30.7716644 C40.8511517,30.7716644 40.4966199,30.854595 40.1803956,31.0212134 C39.8637957,31.1874532 39.5922634,31.4233698 39.364672,31.7289633 C39.1378317,32.0345567 38.961317,32.4075549 38.8366299,32.8475791 C38.7119429,33.287982 38.6495994,33.7825359 38.6495994,34.3304835 C38.6495994,34.887898 38.7119429,35.3888895 38.8366299,35.8334578 C38.961317,36.2784049 39.1378317,36.6601127 39.364672,36.9793385 C39.5922634,37.2985644 39.8637957,37.5431906 40.1803956,37.7139745 C40.4966199,37.8847584 40.8511517,37.9695824 41.2432399,37.9695824" id="Fill-47"></path>
                            <path d="M46.6666667,38.9541461 L46.6666667,29.7874794 L49.6767939,29.7874794 C50.1664501,29.7874794 50.6189798,29.8322274 51.0356207,29.9205458 C51.4518491,30.0096493 51.8086752,30.1560616 52.1073366,30.3605678 C52.405998,30.5662516 52.6386568,30.8315994 52.8049007,31.1573962 C52.9711445,31.4835855 53.0544727,31.8835698 53.0544727,32.3589192 C53.0544727,33.0764573 52.8585277,33.6491531 52.4674628,34.0773993 C52.0755729,34.506038 51.5467277,34.7996477 50.8813399,34.9578358 L53.3333333,38.9541461 L51.9530557,38.9541461 L49.6326547,35.0842293 L47.8856506,35.0842293 L47.8856506,38.9541461 L46.6666667,38.9541461 Z M47.8856506,34.1335306 L49.5006497,34.1335306 C50.2547285,34.1335306 50.832663,33.9871183 51.2336283,33.6935086 C51.6350061,33.4002915 51.8354887,32.9555592 51.8354887,32.3589192 C51.8354887,31.7532511 51.6350061,31.3297152 51.2336283,31.087134 C50.832663,30.8457303 50.2547285,30.7240472 49.5006497,30.7240472 L47.8856506,30.7240472 L47.8856506,34.1335306 Z" id="Fill-49"></path>
                            <polygon id="Fill-51" points="55.8333333 38.9541461 55.8333333 29.7874794 56.974304 29.7874794 56.974304 34.3849443 57.0160045 34.3849443 60.7675007 29.7874794 62.0598286 29.7874794 59.2419591 33.2807205 62.5 38.9541461 61.2215723 38.9541461 58.5276459 34.1890653 56.974304 36.0473644 56.974304 38.9541461"></polygon>
                        </g>
                        <g id="Group-11">
                            <polygon id="Fill-53" fill="#8BD0E4" points="10.7663794 10.8760038 0.774623491 34.9192738 17.8087744 27.8732281"></polygon>
                            <polygon id="Fill-55" fill="#8BD0E4" points="34.8346135 0.889692015 10.7663261 10.8760038 27.7796975 17.9116692"></polygon>
                            <polygon id="Fill-57" fill="#8BD0E4" points="58.8997041 10.8760038 34.8346135 0.889958175 41.8879311 17.913"></polygon>
                            <polygon id="Fill-59" fill="#8BD0E4" points="68.9057392 34.9192738 58.8995975 10.8760038 51.8598665 27.8697681"></polygon>
                            <polygon id="Fill-61" fill="#8BD0E4" points="0.774410367 34.9192738 10.7661663 58.9625437 17.8104261 41.9666502"></polygon>
                            <polygon id="Fill-63" fill="#8BD0E4" points="51.8561102 41.9701635 58.8971732 58.962597 68.9054462 34.919327"></polygon>
                            <polygon id="Fill-65" fill="#8BD0E4" points="10.7663794 58.9625437 34.8346668 68.9640266 27.7757547 51.9284753"></polygon>
                            <polygon id="Fill-67" fill="#8BD0E4" points="34.8179633 68.9474449 58.8803898 58.9462281 41.8758097 51.9116274"></polygon>
                            <polygon id="Fill-69" fill="#4CA9D4" points="44.8047374 24.9525779 34.8358923 20.8300304 24.8601206 24.9563042 20.7295235 34.922654 24.8555917 44.881019 34.8348266 49.0091559 44.8108647 44.8836806 48.9366665 34.9245171"></polygon>
                            <polygon id="Fill-71" fill="#56B8DD" points="17.8102396 41.9665437 24.8555651 44.8809924 20.7294969 34.9226274"></polygon>
                            <polygon id="Fill-73" fill="#56B8DD" points="51.8594936 27.8698213 44.804844 24.9524449 48.9365067 34.9246502"></polygon>
                            <polygon id="Fill-75" fill="#56B8DD" points="44.8109713 44.8836274 51.8560303 41.9699772 48.9365067 34.9244639"></polygon>
                            <polygon id="Fill-77" fill="#56B8DD" points="17.808801 27.8730684 20.7296567 34.9225741 24.8602538 24.9562243"></polygon>
                            <polygon id="Fill-79" fill="#56B8DD" points="27.7796975 17.9116958 24.8601739 24.9561445 34.8359455 20.8296046"></polygon>
                            <polygon id="Fill-81" fill="#56B8DD" points="27.7756748 51.9285551 34.8348533 49.0085171 24.8556184 44.8809125"></polygon>
                            <polygon id="Fill-83" fill="#56B8DD" points="41.8878245 17.9128669 34.835839 20.8299772 44.8046841 24.9525247"></polygon>
                            <polygon id="Fill-85" fill="#63C4E2" points="20.7297633 34.922654 17.8089076 27.8731483 0.774490289 34.9191939 17.810506 41.9665703"></polygon>
                            <polygon id="Fill-87" fill="#63C4E2" points="24.8558848 44.8810456 17.8105593 41.966597 10.7662995 58.9622243 27.7759412 51.9286882"></polygon>
                            <polygon id="Fill-89" fill="#63C4E2" points="34.8223856 48.9924677 27.7632071 51.9119734 34.8221192 68.9475247 41.8796992 51.9119734"></polygon>
                            <polygon id="Fill-91" fill="#63C4E2" points="48.9365866 34.92473 51.8561102 41.9702433 68.9054462 34.9191407 51.8595735 27.869635"></polygon>
                            <polygon id="Fill-93" fill="#63C4E2" points="44.794321 44.8669924 41.875863 51.9117072 58.880443 58.9457757 51.8393801 41.9533422"></polygon>
                            <polygon id="Fill-95" fill="#63C4E2" points="44.8047374 24.9525779 51.859387 27.8699544 58.8996508 10.875924 41.8878778 17.9129202"></polygon>
                            <polygon id="Fill-97" fill="#63C4E2" points="34.8360255 20.8298441 41.888011 17.9127338 34.8346934 0.889692015 27.7797774 17.9119354"></polygon>
                            <polygon id="Fill-99" fill="#63C4E2" points="24.8603071 24.9562243 27.7798307 17.9117757 10.7664593 10.8761103 17.8088543 27.8730684"></polygon>
                            <polygon id="Fill-101" fill="#56B8DD" points="41.8802587 51.9155665 44.8000487 44.8711179 34.824277 48.9976578"></polygon>
                            <path d="M35.5349635,34.4593498 L35.5349635,34.4628099 C35.528037,34.4540266 35.5227089,34.4471065 35.515516,34.4401863 L35.5349635,34.4593498 Z" id="Fill-103" fill="#FEFEFE"></path>
                            <g id="Group-107" transform="translate(-0.000000, -0.000000)">
                                <mask id="mask-2" fill="white">
                                    <use xlink:href="#path-1"></use>
                                </mask>
                                <g id="Clip-106"></g>
                                <path d="M58.3523234,58.4356806 L49.6731409,62.0602433 L49.678469,34.9287224 L48.2412184,34.9281901 L48.2414848,47.1481141 L35.5353365,34.4594829 L35.5353365,34.462943 C35.5278772,34.4541597 35.5225491,34.4472395 35.5153562,34.4403194 L35.5353365,34.4594829 L35.5353365,1.93210646 L58.3576514,11.3469734 L68.1432105,34.8789506 L58.3523234,58.4356806 Z M48.2412184,62.6298251 L35.5353365,67.9293308 L35.5353365,36.4447681 L48.2414848,49.166403 L48.2412184,62.6298251 Z M34.1295215,36.7782662 L34.1295215,67.9154905 L12.0744507,58.8165551 L34.1295215,36.7782662 Z M1.75688241,35.6191407 L14.5533417,35.6191407 L20.0625806,48.8483422 L11.0221541,57.8810038 L1.75688241,35.6191407 Z M33.3020701,35.6191407 L21.1361895,47.7738555 L16.0747761,35.6191407 L33.3020701,35.6191407 Z M11.0378719,11.9684563 L33.3036685,34.2156806 L1.86744016,34.2156806 L11.0378719,11.9684563 Z M34.1295215,1.89005323 L34.1295215,14.4993688 L20.9973929,19.9335513 L12.0938982,11.036365 L34.1295215,1.89005323 Z M34.1295215,33.0554905 L22.0723339,21.0077719 L34.1295215,16.0194068 L34.1295215,33.0554905 Z M59.4328588,10.2711559 L34.7776829,0.0998631179 L10.2069572,10.2991027 L-5.32808399e-05,35.058076 L10.2016291,59.5618023 L34.8552066,69.7338935 L59.4275307,59.5099011 L69.6662433,34.8789506 L59.4328588,10.2711559 Z" id="Fill-105" fill="#FEFEFE" mask="url(#mask-2)"></path>
                            </g>
                            <path d="M35.5349635,34.4593498 L35.5349635,34.4628099 C35.528037,34.4540266 35.5227089,34.4471065 35.515516,34.4401863 L35.5349635,34.4593498 Z" id="Fill-108" fill="#FEFEFE"></path>
                        </g>
                    </g>
                </g>
            </g>
        </g>
    </g>
</svg>